<?xml version="1.0" encoding="UTF-8"?>
<svg id="Layer_1" xmlns="http://www.w3.org/2000/svg" version="1.1" viewBox="0 0 300 300">
  <!-- Generator: Adobe Illustrator 29.4.0, SVG Export Plug-In . SVG Version: 2.1.0 Build 152)  -->
  <defs>
    <style>
      .st0 {
        fill: none;
        stroke: #fffef1;
        stroke-miterlimit: 10;
        stroke-width: .49px;
      }

      .st1 {
        fill: #fffef1;
      }
    </style>
  </defs>
  <path class="st1" d="M64.18,118.48v35.59c0,3.28-.78,5.63-2.33,7.04s-4.26,2.12-8.14,2.12h-17.83c-3.88,0-6.59-.71-8.14-2.12s-2.33-3.76-2.33-7.04v-9.96l9.5.07v8.4c0,1.39,1.07,2.52,2.4,2.52h14.97c1.33,0,2.4-1.13,2.4-2.52v-34.09h9.5Z"/>
  <path class="st1" d="M135.5,154.08c0,3.28-.78,5.63-2.33,7.04s-4.26,2.12-8.14,2.12h-29.07c-3.88,0-6.59-.71-8.14-2.12s-2.33-3.76-2.33-7.04v-26.85c0-3.09.79-5.32,2.36-6.69,1.58-1.37,4.28-2.05,8.1-2.05h29.07c3.82,0,6.52.68,8.1,2.05,1.58,1.37,2.37,3.6,2.37,6.69v26.85ZM123.6,126.21h-26.21c-1.33,0-2.4,1.13-2.4,2.52v23.84c0,1.39,1.07,2.52,2.4,2.52h26.21c1.33,0,2.4-1.13,2.4-2.52v-23.84c0-1.39-1.07-2.52-2.4-2.52Z"/>
  <path class="st1" d="M209.53,118.48v44.74h-9.5v-25.44c0-1.16-1.44-1.62-2.05-.64l-12.36,19.8c-.39.62-1.05,1-1.76,1h-1.83c-.71,0-1.37-.38-1.76-1l-11.9-19.06c-.61-.97-2.05-.52-2.05.64v24.71h-9.5v-44.74h10.08l16.51,26.4,16.51-26.4h9.61Z"/>
  <path class="st1" d="M230.85,127.23c0-3.09.79-5.32,2.36-6.69,1.58-1.37,4.28-2.05,8.1-2.05h23.64c3.82,0,6.52.68,8.1,2.05,1.58,1.37,2.37,3.6,2.37,6.69v3.64l-9.5.03v-2.16c0-1.39-1.07-2.52-2.4-2.52h-20.78c-1.33,0-2.4,1.13-2.4,2.52v4.93c0,1.39,1.07,2.52,2.4,2.52h22.21c3.82,0,6.52.69,8.1,2.05,1.58,1.37,2.37,3.6,2.37,6.69v9.15c0,3.28-.78,5.63-2.33,7.04s-4.26,2.12-8.14,2.12h-23.64c-3.88,0-6.59-.71-8.14-2.12s-2.33-3.76-2.33-7.04v-4.75l9.5.21v3.04c0,1.39,1.07,2.52,2.4,2.52h20.78c1.33,0,2.4-1.13,2.4-2.52v-6.56c0-1.39-1.07-2.52-2.4-2.52h-22.21c-3.88,0-6.59-.7-8.14-2.12-1.55-1.41-2.33-3.76-2.33-7.04v-7.12Z"/>
  <path class="st1" d="M77.28,173.67h.99v5.41c0,2.15-1.01,2.81-2.33,2.81-.37,0-.81-.08-1.06-.19l.15-.85c.21.08.5.16.83.16.89,0,1.42-.42,1.42-2v-5.33Z"/>
  <path class="st1" d="M83.44,173.67v4.79c0,1.81.77,2.58,1.79,2.58,1.14,0,1.87-.79,1.87-2.58v-4.79h1.01v4.71c0,2.48-1.25,3.5-2.91,3.5-1.58,0-2.77-.95-2.77-3.45v-4.76h1.01Z"/>
  <path class="st1" d="M92.21,180.48c.45.29,1.1.53,1.78.53,1.02,0,1.61-.56,1.61-1.38,0-.75-.41-1.19-1.45-1.61-1.26-.47-2.03-1.15-2.03-2.29,0-1.26.99-2.2,2.49-2.2.79,0,1.36.19,1.7.4l-.27.85c-.25-.14-.77-.38-1.46-.38-1.05,0-1.45.66-1.45,1.21,0,.76.47,1.13,1.53,1.56,1.3.53,1.97,1.19,1.97,2.37,0,1.25-.88,2.33-2.7,2.33-.74,0-1.55-.23-1.97-.52l.25-.88Z"/>
  <path class="st1" d="M101.95,174.55h-2.34v-.89h5.7v.89h-2.35v7.2h-1.01v-7.2Z"/>
  <path class="st1" d="M120.18,177.63c0,2.78-1.61,4.26-3.58,4.26s-3.46-1.66-3.46-4.1c0-2.57,1.52-4.25,3.58-4.25s3.46,1.69,3.46,4.09ZM114.21,177.76c0,1.73.89,3.27,2.46,3.27s2.47-1.52,2.47-3.36c0-1.61-.8-3.29-2.46-3.29s-2.47,1.6-2.47,3.37Z"/>
  <path class="st1" d="M123.98,181.75v-8.08h1.09l2.47,4.09c.57.95,1.02,1.8,1.38,2.63h.02c-.09-1.09-.11-2.08-.11-3.33v-3.38h.94v8.08h-1.01l-2.45-4.1c-.54-.9-1.05-1.82-1.44-2.7h-.03c.06,1.03.08,2,.08,3.35v3.45h-.94Z"/>
  <path class="st1" d="M138,177.96h-2.99v2.91h3.34v.88h-4.33v-8.08h4.16v.88h-3.17v2.55h2.99v.86Z"/>
  <path class="st1" d="M153.56,178.2c-.06-1.13-.13-2.48-.11-3.49h-.03c-.26.95-.58,1.96-.97,3.07l-1.36,3.92h-.75l-1.25-3.85c-.37-1.14-.67-2.18-.89-3.14h-.02c-.02,1.01-.08,2.36-.15,3.57l-.21,3.47h-.95l.54-8.08h1.27l1.31,3.91c.32,1,.58,1.88.78,2.72h.03c.19-.82.47-1.7.81-2.72l1.37-3.91h1.27l.48,8.08h-.97l-.19-3.55Z"/>
  <path class="st1" d="M165.35,177.63c0,2.78-1.61,4.26-3.58,4.26s-3.46-1.66-3.46-4.1c0-2.57,1.52-4.25,3.58-4.25s3.46,1.69,3.46,4.09ZM159.37,177.76c0,1.73.89,3.27,2.46,3.27s2.47-1.52,2.47-3.36c0-1.61-.8-3.29-2.46-3.29s-2.47,1.6-2.47,3.37Z"/>
  <path class="st1" d="M169.15,173.78c.5-.11,1.22-.17,1.91-.17,1.06,0,1.75.2,2.23.66.39.36.61.91.61,1.54,0,1.07-.64,1.77-1.45,2.06v.04c.59.22.95.79,1.13,1.63.25,1.13.43,1.91.59,2.22h-1.03c-.13-.23-.3-.92-.51-1.93-.23-1.12-.64-1.54-1.54-1.57h-.94v3.5h-.99v-7.98ZM170.14,177.46h1.02c1.06,0,1.74-.61,1.74-1.54,0-1.04-.72-1.5-1.77-1.51-.48,0-.82.05-.98.1v2.95Z"/>
  <path class="st1" d="M181.79,177.96h-2.99v2.91h3.34v.88h-4.33v-8.08h4.16v.88h-3.17v2.55h2.99v.86Z"/>
  <path class="st1" d="M190.73,180.48c.45.29,1.1.53,1.78.53,1.02,0,1.61-.56,1.61-1.38,0-.75-.41-1.19-1.45-1.61-1.26-.47-2.03-1.15-2.03-2.29,0-1.26.99-2.2,2.49-2.2.79,0,1.36.19,1.7.4l-.27.85c-.25-.14-.77-.38-1.46-.38-1.05,0-1.45.66-1.45,1.21,0,.76.47,1.13,1.53,1.56,1.3.53,1.97,1.19,1.97,2.37,0,1.25-.88,2.33-2.7,2.33-.74,0-1.55-.23-1.97-.52l.25-.88Z"/>
  <path class="st1" d="M200.47,174.55h-2.34v-.89h5.7v.89h-2.35v7.2h-1.01v-7.2Z"/>
  <path class="st1" d="M211.18,177.96h-2.99v2.91h3.34v.88h-4.33v-8.08h4.16v.88h-3.17v2.55h2.99v.86Z"/>
  <path class="st1" d="M215.32,173.76c.48-.08,1.11-.16,1.91-.16.98,0,1.7.24,2.16.67.42.38.67.97.67,1.69s-.21,1.31-.59,1.73c-.52.59-1.38.89-2.35.89-.3,0-.57-.01-.8-.07v3.24h-.99v-7.99ZM216.31,177.66c.22.06.49.08.82.08,1.2,0,1.93-.61,1.93-1.73s-.72-1.58-1.82-1.58c-.43,0-.77.04-.94.08v3.14Z"/>
  <line class="st0" x1="269.59" y1="173.9" x2="230.85" y2="173.9"/>
  <line class="st0" x1="255.59" y1="181.65" x2="230.85" y2="181.65"/>
  <line class="st0" x1="262.94" y1="177.78" x2="230.85" y2="177.78"/>
  <line class="st0" x1="25.44" y1="173.9" x2="64.18" y2="173.9"/>
  <line class="st0" x1="39.43" y1="181.65" x2="64.18" y2="181.65"/>
  <line class="st0" x1="32.09" y1="177.78" x2="64.18" y2="177.78"/>
</svg>